<svg width="330" height="55" viewBox="0 0 330 55" fill="none" xmlns="http://www.w3.org/2000/svg">
<path fill-rule="evenodd" clip-rule="evenodd" d="M75.9899 49.7453C75.0434 50.2612 74.02 50.4202 72.9292 50.4276C64.1001 50.4869 55.2773 50.2781 46.4616 49.8398C44.2033 49.7273 41.9483 49.5573 39.6935 49.3873L39.6933 49.3873L39.6931 49.3873L39.6928 49.3873C38.864 49.3248 38.0351 49.2623 37.2062 49.2027C35.8788 49.1076 34.7426 48.6078 33.8189 47.7129C33.2041 47.1173 32.5393 46.5794 31.8133 46.1066C29.1944 44.4019 28.1805 42.0263 28.4236 39.1031C28.6956 39.1351 28.6971 39.2996 28.6985 39.4468C28.6988 39.4872 28.6992 39.5263 28.7051 39.5609C29.2166 42.5431 31.4349 44.5043 34.6615 44.7422C43.2838 45.3772 51.9176 45.7924 60.5688 45.7432C63.0344 45.7291 65.5006 45.5922 67.9639 45.4555H67.964H67.964H67.964L68.5043 45.4255C70.3357 45.3245 71.6675 44.2222 71.9019 42.7354C72.1434 41.2022 71.2689 39.6945 69.773 39.1443C69.1661 38.921 68.525 38.8736 67.8476 38.8235C67.4368 38.7931 67.0128 38.7618 66.5749 38.6896C67.0762 37.9139 67.7362 37.3651 68.4692 36.8941C71.0401 35.2423 73.9553 34.3731 76.9497 33.6922C77.3484 33.6016 77.7482 33.5145 78.1999 33.4162C78.437 33.3645 78.6884 33.3097 78.9616 33.2497C78.29 33.0795 77.7649 33.1836 77.2688 33.282L77.2687 33.282C77.143 33.307 77.0191 33.3316 76.8951 33.3512C74.1595 33.7839 71.4947 34.4466 68.9761 35.5611C67.6065 36.1672 66.4226 36.9945 65.5326 38.1479C65.2982 38.452 65.0839 38.6094 64.6507 38.5819C52.7918 37.831 40.9185 37.8747 29.0431 38.0251C29.0075 38.0255 28.9718 38.0197 28.9007 38.0083L28.9006 38.0083L28.9005 38.0083L28.9005 38.0083C28.8518 38.0004 28.7866 37.9899 28.6936 37.9769C29.0984 37.2365 29.7001 36.7727 30.3982 36.401C31.8029 35.6527 33.3042 35.116 34.8465 34.6742C39.0486 33.4701 43.3813 32.8743 47.7195 32.3312C50.1609 32.0252 52.6149 31.7709 55.0724 31.6329C55.8997 31.5863 56.3295 31.1351 56.7583 30.6851C56.9662 30.4668 57.1739 30.2487 57.4266 30.0773L57.6003 30.1915C57.1641 30.9459 57.6877 30.9628 58.2077 30.9796C58.239 30.9806 58.2703 30.9816 58.3013 30.9828C59.3265 31.0219 60.3517 31.0627 61.3768 31.1035L61.3783 31.1035L61.3798 31.1036L61.3813 31.1036C63.7605 31.1982 66.1399 31.2928 68.5198 31.3678C73.9074 31.5369 79.2968 31.517 84.6861 31.4642C85.0512 31.4608 85.4169 31.448 85.7818 31.4303C87.4573 31.3497 87.6455 31.1757 87.6949 29.6094C87.711 29.0983 87.7212 28.587 87.7314 28.0757C87.7473 27.2807 87.7632 26.4858 87.8011 25.6918C87.8242 25.2103 87.6554 25.0602 87.1472 25.0444L85.955 25.0069C78.8057 24.7811 71.6569 24.5553 64.5131 25.1697C64.1522 25.2007 63.7921 25.2385 63.432 25.2763L63.4318 25.2763C63.1572 25.3051 62.8827 25.3339 62.6078 25.3597C62.5546 25.3647 62.5 25.356 62.3935 25.3389C62.3244 25.3278 62.2334 25.3133 62.1068 25.2967C63.3597 24.7836 64.4927 24.6167 65.6274 24.4721C70.7411 23.8202 75.8862 23.7645 81.0315 23.8616C83.0604 23.8997 85.088 23.9915 87.1158 24.0833C88.555 24.1484 89.9942 24.2135 91.434 24.2595C93.6268 24.3296 95.4181 25.1626 96.9428 26.5777C98.1567 27.7041 99.2383 28.9331 100.065 30.3331C100.355 30.8246 100.691 30.9887 101.278 30.9809C102.191 30.9688 103.097 31.1184 103.97 31.3811C106.835 32.2432 108.113 34.6089 107.138 37.2789C106.818 38.1569 106.246 38.8996 105.673 39.6443C105.523 39.8392 105.373 40.0343 105.227 40.2319C105.34 39.4849 105.4 38.7559 105.347 38.0191C105.318 37.6178 105.158 37.2924 104.748 37.14C104.308 36.9764 103.923 37.099 103.584 37.4045C103.161 37.7847 102.851 38.2274 102.597 38.7199L102.496 38.9161L102.496 38.9166C102.03 39.8204 101.565 40.7254 101.049 41.6044C99.7966 43.7396 97.9011 45.1799 95.4383 45.9639C92.0179 47.0526 88.596 48.1382 85.1633 49.1924C84.6033 49.3642 84.3362 49.6104 84.2315 50.162C83.9912 51.4297 83.5081 52.5991 82.5616 53.5967C82.1803 53.9987 81.8036 54.22 81.2596 54.2262C79.1891 54.2498 77.1192 54.2347 75.066 53.951C73.7575 53.77 72.6882 52.243 72.9658 51.0339C73.0374 50.7229 73.2415 50.7349 73.439 50.7466C73.4978 50.7501 73.5561 50.7536 73.6101 50.7484C74.5274 50.6611 75.411 50.4988 76.1442 49.9259L76.1821 49.9136C76.3708 49.8525 76.6265 49.7697 76.4799 49.5744C76.3678 49.425 76.2336 49.5417 76.1081 49.6509C76.0675 49.6862 76.0277 49.7208 75.9899 49.7453ZM84.5949 48.7874C85.2431 47.9473 85.7916 47.0757 86.2155 46.1407C86.7317 45.0025 87.0438 43.8245 86.8853 42.5774C86.6526 40.7429 84.7053 39.7914 83.14 40.6843C84.6519 43.2289 84.8045 45.964 84.5949 48.7874ZM79.3388 51.8098C79.3103 51.7994 79.2776 51.7874 79.2426 51.7711C79.1976 52.125 79.325 52.4306 79.4508 52.7323C79.5605 52.9955 79.669 53.2557 79.6608 53.5426C78.6261 52.4225 78.5127 51.077 78.3979 49.7149C78.3552 49.2081 78.3123 48.699 78.2217 48.1984C78.03 48.2392 77.9085 48.3711 77.7762 48.5148C77.6035 48.7023 77.4124 48.9098 77.023 48.9602C77.6727 48.1074 78.2389 47.37 78.8043 46.6573C79.6466 45.5953 80.2631 44.4412 80.8427 43.2578C81.1221 42.6874 81.4214 42.1333 81.8566 41.6511C82.4352 41.0092 82.648 41.025 83.0461 41.8019C83.5643 42.8134 83.7646 43.9095 83.8862 45.0102C84.1368 47.2778 83.824 49.4815 82.8992 51.6004C82.5925 52.3035 82.2443 52.947 81.2742 53.0061C80.3329 53.0632 79.8134 52.583 79.4409 51.8674C79.4278 51.8425 79.3901 51.8287 79.3388 51.8098ZM72.5167 44.8539C75.6042 45.0963 77.1579 43.799 77.1667 41.0442C77.1692 40.1745 77.4889 39.4451 78.1624 38.8421C79.0718 38.0281 80.133 37.436 81.254 36.9126C84.282 35.4991 87.5449 34.8608 90.8483 34.3686C91.9292 34.2074 93.0163 34.0848 94.1037 33.9622C94.5912 33.9073 95.0788 33.8523 95.5659 33.7938C95.3764 33.6788 95.1971 33.6584 95.0177 33.6586C91.0889 33.6621 87.182 33.9364 83.307 34.5439C80.4522 34.9912 77.6714 35.6732 75.0882 36.9412C73.7901 37.5785 72.9605 38.5873 73.0878 39.9362C73.248 41.6261 73.3131 43.2637 72.5167 44.8539ZM95.1507 32.1697C94.7972 32.1574 94.4589 32.1455 94.1465 32.1732C93.8515 32.1732 93.5782 32.1749 93.3197 32.1766C92.7869 32.1799 92.3164 32.1829 91.8466 32.1695C90.6158 32.1342 89.7157 31.4932 89.5749 30.3644C89.4395 29.2801 89.374 28.188 89.3085 27.096C89.279 26.6047 89.2495 26.1135 89.2137 25.6229C89.1791 25.1455 89.4776 25.1668 89.7616 25.187C89.8327 25.192 89.9028 25.197 89.9666 25.1941C93.8625 25.0202 96.4504 26.826 98.1778 29.928C98.881 31.1905 98.8012 31.3936 97.3691 31.9385C96.6258 32.2213 95.8579 32.1945 95.1507 32.1697Z" fill="white"/>
<path fill-rule="evenodd" clip-rule="evenodd" d="M67.9975 1.61035C86.9844 1.99353 102.401 9.0365 113.88 23.2418C119.87 30.6528 123.27 39.0664 124.383 48.2874C124.591 50.0107 124.677 51.7384 124.755 53.4698C124.787 54.1827 124.528 54.3122 123.84 54.2964C122.192 54.259 122.174 54.2895 122.113 52.7646C121.742 43.4229 118.963 34.7714 113.418 26.9657C105.799 16.241 95.3379 9.10649 81.9941 5.73854C75.274 4.04261 68.4477 3.67672 61.5385 4.48195C50.951 5.71557 41.5648 9.56262 33.4749 15.9954C23.6538 23.8048 17.5957 33.7131 15.2461 45.5649C14.725 48.1932 14.4251 50.8481 14.4835 53.5257C14.4965 54.1099 14.3308 54.304 13.6755 54.2978C11.7857 54.2803 11.7467 54.3074 11.8205 52.576C12.3445 40.2952 16.8105 29.432 25.3737 20.0717C31.161 13.7456 38.1813 8.95308 46.3983 5.72694C51.9865 3.53308 57.8211 2.23058 63.8748 1.79785C65.2425 1.70012 66.6082 1.6224 67.9975 1.61035Z" fill="white"/>
<path fill-rule="evenodd" clip-rule="evenodd" d="M65.2093 0.0038789C82.3938 0.0343335 94.9781 4.28047 105.854 12.8082C115.182 20.1225 121.443 29.3003 124.604 40.2937C125.848 44.6197 126.435 49.0316 126.526 53.5028C126.532 53.7989 126.808 54.3111 126.082 54.2859C125.391 54.2618 125.653 53.7616 125.647 53.46C125.478 44.9151 123.404 36.7938 118.993 29.3031C110.551 14.968 97.8166 5.58002 80.649 2.11252C61.9471 -1.66476 45.0564 2.41842 30.5229 14.0905C20.2958 22.3039 14.1383 32.7965 11.7438 45.1967C11.2136 47.9423 10.9777 50.7102 10.908 53.4957C10.9004 53.7987 11.15 54.3084 10.4426 54.2855C9.80093 54.2644 10.0446 53.8028 10.049 53.5244C10.2245 42.2166 13.7884 31.9357 20.8673 22.7432C27.4193 14.2343 35.8722 7.92614 46.2833 3.97205C53.2887 1.31138 60.5821 -0.0836211 65.2093 0.0038789Z" fill="white"/>
<path fill-rule="evenodd" clip-rule="evenodd" d="M58.4023 17.9193C61.9579 14.032 65.5201 10.1493 69.0604 6.24996C69.4442 5.82724 69.6452 5.85201 70.0258 6.252C72.0476 8.37518 74.1138 10.4618 76.1309 12.5884C76.514 12.9925 76.7177 12.9845 77.1111 12.62C78.3859 11.4395 79.7128 10.3086 80.9888 9.12928C81.4048 8.74497 81.6493 8.71678 82.0589 9.15747C83.5543 10.7663 85.1178 12.3204 86.6067 13.9343C87.0325 14.3956 87.3529 14.4225 87.9075 14.1552C89.0941 13.5838 90.331 13.1043 91.5321 12.5579C92.009 12.3411 92.4179 12.3206 92.9024 12.5618C102.714 17.4422 110.261 24.3333 114.757 33.9379C114.958 34.3694 115.217 34.795 115.232 35.3399C114.862 35.265 114.845 34.9804 114.742 34.7872C109.852 25.6629 102.33 18.9847 92.7707 14.1918C92.3796 13.9954 92.0648 13.9954 91.6704 14.1736C90.2487 14.8152 88.799 15.404 87.3851 16.0595C86.9008 16.2838 86.6238 16.28 86.2474 15.8659C84.8291 14.3072 83.3435 12.8025 81.9191 11.2486C81.5434 10.8388 81.3286 10.8472 80.9276 11.2145C79.6457 12.3877 78.3033 13.5036 77.0263 14.6816C76.614 15.0618 76.4123 15.0275 76.0565 14.6332C74.0775 12.4388 72.0525 10.2806 70.0865 8.07633C69.6295 7.56405 69.4071 7.58428 68.9277 8.0554C65.7211 11.207 62.4793 14.3277 59.2459 17.4556C59.0368 17.6579 58.8024 17.8368 58.5798 18.0266L58.4023 17.9193Z" fill="white"/>
<path fill-rule="evenodd" clip-rule="evenodd" d="M58.238 21.2792C56.4165 19.7417 54.5692 18.2294 52.7887 16.6517C52.241 16.1663 51.9373 16.1969 51.4046 16.6472C49.9398 17.8856 48.3886 19.0356 46.9281 20.2785C46.4037 20.7249 46.0848 20.6749 45.5874 20.2792C44.0834 19.0824 42.5184 17.9517 41.0217 16.7469C40.4743 16.3063 40.1027 16.2349 39.4821 16.6738C31.7855 22.1156 25.3151 28.5105 21.2918 36.832C21.2421 36.9349 21.1882 37.0371 21.1234 37.1317C21.0949 37.173 21.0332 37.1945 20.918 37.2697C20.9209 36.5749 21.2301 36.0033 21.4628 35.4286C23.58 30.204 26.8837 25.6846 30.9937 21.6631C33.6029 19.1104 36.4646 16.8233 39.5523 14.7804C40.131 14.3974 40.5045 14.3353 41.0895 14.8263C42.6042 16.0967 44.2183 17.264 45.7594 18.5079C46.1673 18.8369 46.4076 18.8306 46.8222 18.5185C48.408 17.3247 50.0322 16.1756 51.638 15.0049C51.9427 14.7829 52.1889 14.5963 52.5503 14.9754C54.4485 16.9656 56.3691 18.9372 58.2773 20.919C58.3301 20.974 58.3355 21.069 58.3633 21.1454C58.3213 21.1899 58.2798 21.2347 58.238 21.2792Z" fill="white"/>
<path fill-rule="evenodd" clip-rule="evenodd" d="M63.5449 43.7377C63.6157 43.0507 63.7127 42.4881 63.7223 41.9241C63.7393 40.9148 63.1351 40.3417 62.0541 40.3103C56.3026 40.1437 50.5518 39.964 44.7995 39.8293C42.1613 39.7679 39.5318 39.6152 36.8945 39.439C37.014 39.0558 37.3366 39.1539 37.5897 39.134C44.9185 38.5567 52.2468 38.592 59.5729 39.1734C60.3904 39.2383 61.201 39.3744 62.0156 39.4738C63.7435 39.6858 64.5398 40.6946 64.1732 42.272C64.0607 42.7551 63.9703 43.2688 63.5449 43.7377Z" fill="white"/>
<path fill-rule="evenodd" clip-rule="evenodd" d="M61.0268 44.4765C60.1572 44.546 59.2889 44.6466 58.4175 44.6796C51.3475 44.9456 44.3042 44.6477 37.2914 43.762C36.2085 43.6252 35.5836 42.967 35.6102 42.0572C35.9198 41.9924 35.9468 42.2472 36.0399 42.4042C36.3532 42.9322 36.8233 43.1339 37.4666 43.1364C44.7433 43.1646 52.0021 43.5544 59.2527 44.0991C59.856 44.1445 60.457 44.2212 61.059 44.2829C61.0484 44.3477 61.0376 44.4124 61.0268 44.4765Z" fill="white"/>
<path fill-rule="evenodd" clip-rule="evenodd" d="M101.328 41.8528C101.3 43.8749 101.085 45.6675 101.853 47.3624C101.946 47.5675 102.08 47.7584 102.218 47.9406C102.251 47.9841 102.377 47.966 102.531 47.9848C101.358 46.0144 101.547 43.9489 101.726 41.7852C102.123 42.081 102.004 42.4124 102.012 42.6897C102.043 43.8834 102.089 45.0774 102.449 46.2303C102.606 46.7313 102.738 47.359 103.485 47.3599C104.139 47.3608 104.213 46.7677 104.431 46.3495C104.521 46.1758 104.587 45.9908 104.678 45.7777C104.936 46.5445 104.602 47.3514 103.881 47.7996C103.356 48.1255 102.759 48.2573 102.152 48.2793C101.028 48.3208 99.899 48.3554 98.7768 48.3027C97.3605 48.2364 96.8224 47.7135 96.5105 46.3978C96.4255 46.038 96.5155 45.8998 96.8486 45.7536C98.6923 44.9449 100.077 43.6572 101.328 41.8528Z" fill="white"/>
<path fill-rule="evenodd" clip-rule="evenodd" d="M41.3227 50.2545C41.366 50.3281 41.4092 50.4017 41.4525 50.4754C43.2905 52.3344 46.6435 52.4626 48.5203 50.7447C48.609 50.7216 48.6928 50.6806 48.6275 50.5868C48.6127 50.566 48.4852 50.6136 48.4093 50.6294C46.0759 51.8454 43.802 51.7732 41.5896 50.3574C41.521 50.3077 41.4525 50.2582 41.3839 50.2087C41.3716 50.137 41.3522 50.032 41.2557 50.0921C41.1694 50.1457 41.2424 50.2186 41.3227 50.2545Z" fill="white"/>
<path fill-rule="evenodd" clip-rule="evenodd" d="M39.2031 49.709C42.7461 49.9084 46.2638 50.1061 49.7764 50.3039C49.4815 51.2987 46.9447 52.5548 45.0869 52.6068C42.151 52.6884 39.9103 51.6037 39.2031 49.709Z" fill="white"/>
<path fill-rule="evenodd" clip-rule="evenodd" d="M64.998 13.633C65.7885 12.5526 66.7259 11.5853 67.6489 10.6051C67.9769 10.2566 68.1939 10.2732 68.5064 10.6105C69.2819 11.4469 70.1407 12.2219 70.857 13.0987C71.315 13.6594 71.6833 13.6985 72.2612 13.3248C72.5654 13.1282 72.8863 12.8903 73.4815 12.8894C72.7799 13.4346 72.1937 13.8744 71.6283 14.336C71.3074 14.5982 71.1432 14.3664 70.9511 14.1932C70.1852 13.5044 69.3586 12.8628 68.6767 12.1073C68.1455 11.5187 67.8314 11.6335 67.3393 12.1053C66.6849 12.7325 65.9677 13.3048 65.1639 13.771C65.1086 13.7248 65.0533 13.6789 64.998 13.633Z" fill="white"/>
<path fill-rule="evenodd" clip-rule="evenodd" d="M104.252 44.974C104.275 43.3783 104.306 41.7134 104.082 39.8984C104.791 41.0344 104.803 44.3156 104.252 44.974Z" fill="white"/>
<path fill-rule="evenodd" clip-rule="evenodd" d="M104.812 45.0402C104.889 44.3562 104.965 43.6721 105.041 42.9883C105.179 43.6831 105.225 44.3699 104.812 45.0402Z" fill="white"/>
<path fill-rule="evenodd" clip-rule="evenodd" d="M101.875 41.3645C101.9 41.1704 101.911 40.9859 101.927 40.9855C102.093 40.9811 101.983 41.1033 101.999 41.1697C102.006 41.1988 101.957 41.2403 101.875 41.3645Z" fill="white"/>
<path fill-rule="evenodd" clip-rule="evenodd" d="M65.1645 13.7708C65.0854 13.9019 64.9857 13.9749 64.8242 13.8771C64.8825 13.7955 64.9407 13.7142 64.9987 13.6328C65.054 13.6787 65.1093 13.7246 65.1645 13.7708Z" fill="white"/>
<path fill-rule="evenodd" clip-rule="evenodd" d="M58.2105 18.3623C58.1542 18.4053 58.0654 18.4952 58.0472 18.484C57.8852 18.3861 58.0464 18.3258 58.0916 18.251C58.1301 18.2893 58.1698 18.3263 58.2105 18.3623Z" fill="white"/>
<path fill-rule="evenodd" clip-rule="evenodd" d="M58.3973 18.1947C58.3349 18.2504 58.2726 18.3058 58.2102 18.3613C58.1697 18.3256 58.1301 18.2885 58.0918 18.2504C58.1529 18.1829 58.2143 18.1154 58.2755 18.0479C58.3163 18.097 58.3568 18.1458 58.3973 18.1947Z" fill="white"/>
<path fill-rule="evenodd" clip-rule="evenodd" d="M58.2754 18.0493C58.3178 18.0059 58.3607 17.9623 58.4029 17.9189C58.4621 17.9548 58.5215 17.9906 58.581 18.0265C58.5201 18.0833 58.4589 18.1399 58.3977 18.1967C58.3568 18.1477 58.3161 18.0984 58.2754 18.0493Z" fill="white"/>
<path fill-rule="evenodd" clip-rule="evenodd" d="M57.8203 29.9129C58.0623 29.7365 58.2608 29.5278 58.3792 29.2598L58.3796 29.2601C58.395 29.2447 58.4154 29.226 58.4357 29.2075L58.4358 29.2074C58.4793 29.1677 58.5227 29.128 58.5168 29.1197C58.4372 29.0109 58.3791 29.0647 58.321 29.1184L58.321 29.1184C58.3053 29.133 58.2896 29.1475 58.2734 29.1588L58.2734 29.1588C58.1149 29.3306 57.9564 29.5027 57.7984 29.6751L57.7986 29.6766L57.7986 29.6767L57.7986 29.6768C57.8059 29.7555 57.8132 29.8342 57.8203 29.9129ZM57.7982 29.676L57.7981 29.675L57.7622 29.7147L57.7621 29.7148L57.7618 29.7152C57.7075 29.7751 57.6532 29.8352 57.5992 29.8956L57.5994 29.8959L57.4277 30.0769C57.4859 30.1154 57.5442 30.1536 57.6021 30.1915C57.6163 30.176 57.6305 30.1604 57.6447 30.1449C57.6756 30.1109 57.7067 30.0768 57.7378 30.0429L57.7371 30.0421C57.7933 30.0151 57.821 29.9721 57.82 29.9128C57.8129 29.8339 57.8056 29.755 57.7982 29.676L57.7982 29.676Z" fill="white"/>
<path fill-rule="evenodd" clip-rule="evenodd" d="M83.2541 45.3008C83.233 45.5804 83.2087 45.86 83.1912 46.1398C83.077 47.9676 82.714 49.7354 81.7385 51.3542C81.5761 51.6233 81.4447 51.9276 81.0309 51.9345C80.5733 51.9423 80.3967 51.6221 80.2635 51.3111C80.0618 50.8411 79.8748 50.3585 79.7551 49.866C79.5445 49.0007 79.3902 48.1239 79.2123 47.2517C79.088 48.772 79.0784 50.2721 79.7453 51.6854C79.9794 52.1813 80.3608 52.5491 80.9736 52.569C81.5808 52.5892 81.97 52.2674 82.2634 51.78C83.489 49.7404 83.7719 47.5769 83.2541 45.3008Z" fill="white"/>
<path fill-rule="evenodd" clip-rule="evenodd" d="M75.9902 49.7438C76.145 49.6436 76.3318 49.375 76.4804 49.5728C76.6367 49.7816 76.3337 49.8618 76.1448 49.9243C76.0934 49.8641 76.0416 49.804 75.9902 49.7438Z" fill="white"/>
<path fill-rule="evenodd" clip-rule="evenodd" d="M41.3221 50.2558C41.2424 50.2192 41.1692 50.146 41.256 50.0921C41.3527 50.0318 41.3722 50.1372 41.3845 50.2093L41.3221 50.2558Z" fill="white"/>
<path fill-rule="evenodd" clip-rule="evenodd" d="M41.3842 50.208C41.453 50.2577 41.5216 50.3077 41.5904 50.3574C41.545 50.397 41.4991 50.4363 41.4532 50.4759C41.4096 50.402 41.3662 50.3279 41.3223 50.2543C41.3218 50.2545 41.3842 50.208 41.3842 50.208Z" fill="white"/>
<path fill-rule="evenodd" clip-rule="evenodd" d="M48.4102 50.6303C48.4864 50.6142 48.6144 50.5663 48.6292 50.5872C48.6948 50.6814 48.6107 50.7226 48.5216 50.7461C48.4809 50.7104 48.4437 50.6717 48.4102 50.6303Z" fill="white"/>
<path fill-rule="evenodd" clip-rule="evenodd" d="M83.2541 45.3008C83.7719 47.5769 83.489 49.7404 82.2634 51.78C81.97 52.2674 81.5808 52.5892 80.9736 52.569C80.3608 52.5491 79.9794 52.1813 79.7453 51.6854C79.0784 50.2721 79.088 48.772 79.2123 47.2517C79.3902 48.1239 79.5445 49.0007 79.7551 49.866C79.8748 50.3585 80.0618 50.8411 80.2635 51.3111C80.3967 51.6221 80.5733 51.9423 81.0309 51.9345C81.4447 51.9276 81.5761 51.6233 81.7385 51.3542C82.714 49.7354 83.077 47.9676 83.1912 46.1398C83.2087 45.86 83.233 45.5804 83.2541 45.3008Z" fill="white"/>
<path d="M173.909 37.8555C172.986 38.9606 171.682 39.8208 169.996 40.436C168.309 41.0399 166.441 41.3418 164.39 41.3418C162.237 41.3418 160.346 40.8747 158.716 39.9404C157.098 38.9948 155.845 37.6276 154.957 35.8389C154.079 34.0501 153.629 31.9481 153.606 29.5327V27.8408C153.606 25.3571 154.022 23.2095 154.854 21.3979C155.697 19.575 156.905 18.1851 158.477 17.228C160.061 16.2596 161.912 15.7754 164.031 15.7754C166.982 15.7754 169.289 16.4818 170.953 17.8945C172.616 19.2959 173.602 21.341 173.909 24.0298H168.919C168.691 22.6056 168.184 21.5632 167.398 20.9023C166.623 20.2415 165.552 19.9111 164.185 19.9111C162.442 19.9111 161.115 20.5662 160.203 21.8765C159.292 23.1867 158.83 25.1349 158.819 27.7212V29.3105C158.819 31.9196 159.314 33.8906 160.306 35.2236C161.297 36.5566 162.75 37.2231 164.664 37.2231C166.589 37.2231 167.962 36.813 168.782 35.9927V31.7031H164.117V27.9263H173.909V37.8555ZM176.985 31.5835C176.985 29.7492 177.339 28.1143 178.045 26.6787C178.751 25.2432 179.765 24.1323 181.087 23.3462C182.42 22.5601 183.964 22.167 185.718 22.167C188.213 22.167 190.247 22.9303 191.819 24.457C193.403 25.9837 194.286 28.0573 194.468 30.6777L194.502 31.9424C194.502 34.7793 193.711 37.0579 192.127 38.7783C190.543 40.4873 188.418 41.3418 185.752 41.3418C183.086 41.3418 180.956 40.4873 179.361 38.7783C177.777 37.0693 176.985 34.7451 176.985 31.8057V31.5835ZM181.924 31.9424C181.924 33.6969 182.255 35.0413 182.916 35.9756C183.576 36.8984 184.522 37.3599 185.752 37.3599C186.949 37.3599 187.883 36.9041 188.555 35.9927C189.227 35.0698 189.563 33.6001 189.563 31.5835C189.563 29.8631 189.227 28.5301 188.555 27.5845C187.883 26.6388 186.937 26.166 185.718 26.166C184.511 26.166 183.576 26.6388 182.916 27.5845C182.255 28.5187 181.924 29.9714 181.924 31.9424ZM196.775 31.5835C196.775 29.7492 197.129 28.1143 197.835 26.6787C198.541 25.2432 199.555 24.1323 200.877 23.3462C202.21 22.5601 203.754 22.167 205.508 22.167C208.003 22.167 210.037 22.9303 211.609 24.457C213.193 25.9837 214.076 28.0573 214.258 30.6777L214.292 31.9424C214.292 34.7793 213.501 37.0579 211.917 38.7783C210.333 40.4873 208.208 41.3418 205.542 41.3418C202.876 41.3418 200.746 40.4873 199.151 38.7783C197.567 37.0693 196.775 34.7451 196.775 31.8057V31.5835ZM201.714 31.9424C201.714 33.6969 202.045 35.0413 202.706 35.9756C203.366 36.8984 204.312 37.3599 205.542 37.3599C206.739 37.3599 207.673 36.9041 208.345 35.9927C209.017 35.0698 209.354 33.6001 209.354 31.5835C209.354 29.8631 209.017 28.5301 208.345 27.5845C207.673 26.6388 206.727 26.166 205.508 26.166C204.301 26.166 203.366 26.6388 202.706 27.5845C202.045 28.5187 201.714 29.9714 201.714 31.9424ZM216.565 31.6177C216.565 28.7352 217.209 26.4395 218.497 24.7305C219.795 23.0215 221.567 22.167 223.812 22.167C225.612 22.167 227.098 22.8392 228.272 24.1836V14.75H233.228V41H228.768L228.528 39.0347C227.298 40.5728 225.714 41.3418 223.777 41.3418C221.601 41.3418 219.852 40.4873 218.531 38.7783C217.221 37.0579 216.565 34.6711 216.565 31.6177ZM221.504 31.9766C221.504 33.7083 221.806 35.0356 222.41 35.9585C223.014 36.8813 223.891 37.3428 225.042 37.3428C226.569 37.3428 227.645 36.6991 228.272 35.4116V28.1143C227.657 26.8268 226.591 26.1831 225.076 26.1831C222.695 26.1831 221.504 28.1143 221.504 31.9766ZM244.08 16.1172L250.472 34.1641L256.829 16.1172H263.562V41H258.418V34.1982L258.931 22.4575L252.215 41H248.694L241.995 22.4746L242.508 34.1982V41H237.381V16.1172H244.08ZM266.946 31.5835C266.946 29.7492 267.299 28.1143 268.006 26.6787C268.712 25.2432 269.726 24.1323 271.048 23.3462C272.381 22.5601 273.925 22.167 275.679 22.167C278.174 22.167 280.208 22.9303 281.78 24.457C283.364 25.9837 284.247 28.0573 284.429 30.6777L284.463 31.9424C284.463 34.7793 283.672 37.0579 282.088 38.7783C280.504 40.4873 278.379 41.3418 275.713 41.3418C273.047 41.3418 270.917 40.4873 269.322 38.7783C267.738 37.0693 266.946 34.7451 266.946 31.8057V31.5835ZM271.885 31.9424C271.885 33.6969 272.216 35.0413 272.876 35.9756C273.537 36.8984 274.483 37.3599 275.713 37.3599C276.91 37.3599 277.844 36.9041 278.516 35.9927C279.188 35.0698 279.524 33.6001 279.524 31.5835C279.524 29.8631 279.188 28.5301 278.516 27.5845C277.844 26.6388 276.898 26.166 275.679 26.166C274.472 26.166 273.537 26.6388 272.876 27.5845C272.216 28.5187 271.885 29.9714 271.885 31.9424ZM293.418 17.9629V22.5088H296.58V26.1318H293.418V35.3604C293.418 36.0439 293.549 36.5339 293.812 36.8301C294.074 37.1263 294.575 37.2744 295.315 37.2744C295.862 37.2744 296.347 37.2345 296.768 37.1548V40.8975C295.8 41.1937 294.803 41.3418 293.777 41.3418C290.314 41.3418 288.548 39.5929 288.479 36.0952V26.1318H285.779V22.5088H288.479V17.9629H293.418ZM298.05 31.5835C298.05 29.7492 298.403 28.1143 299.109 26.6787C299.816 25.2432 300.83 24.1323 302.151 23.3462C303.484 22.5601 305.028 22.167 306.783 22.167C309.278 22.167 311.312 22.9303 312.884 24.457C314.467 25.9837 315.35 28.0573 315.533 30.6777L315.567 31.9424C315.567 34.7793 314.775 37.0579 313.191 38.7783C311.608 40.4873 309.483 41.3418 306.817 41.3418C304.151 41.3418 302.02 40.4873 300.425 38.7783C298.842 37.0693 298.05 34.7451 298.05 31.8057V31.5835ZM302.989 31.9424C302.989 33.6969 303.319 35.0413 303.98 35.9756C304.641 36.8984 305.586 37.3599 306.817 37.3599C308.013 37.3599 308.947 36.9041 309.62 35.9927C310.292 35.0698 310.628 33.6001 310.628 31.5835C310.628 29.8631 310.292 28.5301 309.62 27.5845C308.947 26.6388 308.002 26.166 306.783 26.166C305.575 26.166 304.641 26.6388 303.98 27.5845C303.319 28.5187 302.989 29.9714 302.989 31.9424ZM329 27.1401C328.327 27.049 327.735 27.0034 327.222 27.0034C325.354 27.0034 324.129 27.6357 323.548 28.9004V41H318.609V22.5088H323.274L323.411 24.7134C324.402 23.0158 325.775 22.167 327.53 22.167C328.077 22.167 328.589 22.241 329.068 22.3892L329 27.1401Z" fill="white"/>
</svg>
