<svg width="30" height="30" viewBox="0 0 30 30" fill="none" xmlns="http://www.w3.org/2000/svg">
<path fill-rule="evenodd" clip-rule="evenodd" d="M30 15C30 23.2863 23.2863 30 15 30C6.71375 30 0 23.2863 0 15C0 6.71375 6.71375 0 15 0C23.2863 0 30 6.71375 30 15ZM21.3262 9.09851L6.86374 14.6748C5.87249 15.0623 5.88999 15.611 6.69374 15.866L10.3962 17.021L18.985 11.6135C19.3837 11.3485 19.7537 11.4985 19.4512 11.7648L12.5012 18.0435L12.235 21.8598C12.6225 21.8598 12.7912 21.691 12.9912 21.491L14.8 19.7485L18.55 22.5123C19.2337 22.8998 19.7225 22.6998 19.905 21.8773L22.3675 10.276L22.3662 10.2773C22.5837 9.26227 21.9975 8.85602 21.3262 9.09851Z" fill="white"/>
</svg>
