<svg width="30" height="30" viewBox="0 0 30 30" fill="none" xmlns="http://www.w3.org/2000/svg">
<path fill-rule="evenodd" clip-rule="evenodd" d="M15 30C23.2843 30 30 23.2843 30 15C30 6.71573 23.2843 0 15 0C6.71573 0 0 6.71573 0 15C0 23.2843 6.71573 30 15 30ZM6.64197 9.15696C6.9875 7.79541 8.75491 6.10269 10.1598 5.78996C13.3717 5.17939 16.6284 5.17939 19.8397 5.78996C21.2453 6.10269 23.0126 7.79541 23.3575 9.15703C23.9329 11.7915 23.9329 14.4621 23.3575 17.0966C23.0127 18.4581 21.2446 20.1509 19.8397 20.4636C18.0006 20.8131 16.1468 20.9625 14.295 20.9113C14.2583 20.9103 14.2228 20.9245 14.1971 20.9509L12.4728 22.7201L10.6387 24.6014C10.5046 24.7411 10.269 24.6461 10.269 24.4532V20.5939C10.269 20.5302 10.2234 20.476 10.1608 20.4637L10.1598 20.4635C8.75491 20.1508 6.9875 18.4581 6.64197 17.0965C6.06726 14.4621 6.06726 11.7914 6.64197 9.15696ZM18.6259 18.6916C19.2163 18.3757 19.6255 17.8809 19.9068 17.2861C20.0604 16.9612 19.9664 16.6473 19.6938 16.408C19.4295 16.1763 19.1458 15.9751 18.8596 15.7723L18.8596 15.7722L18.8595 15.7722L18.7961 15.7272C18.4828 15.5048 18.1675 15.2847 17.8422 15.0797C17.5171 14.8748 17.1313 14.878 16.8295 15.1239C16.7205 15.2127 16.6322 15.3301 16.5442 15.4471L16.5442 15.4471C16.3828 15.6617 16.2224 15.875 15.9372 15.9082C15.6976 15.936 15.486 15.8471 15.2775 15.7595L15.2163 15.7339C13.7888 15.1423 12.9189 14.0438 12.4028 12.6312C12.3358 12.4477 12.3408 12.2486 12.4449 12.0799C12.5018 11.9876 12.58 11.9188 12.6631 11.8506L12.7188 11.8046C12.7946 11.7416 12.8706 11.6786 12.9523 11.6233C13.3708 11.3401 13.4341 10.8314 13.2032 10.4153C12.8277 9.73881 12.364 9.12532 11.8591 8.54169C11.6256 8.27173 11.3102 8.18352 10.9904 8.33653C10.5807 8.53256 10.2024 8.79856 9.90845 9.14612C9.59515 9.51646 9.29755 10.0243 9.49962 10.5158L9.56822 10.683L9.56822 10.683C9.76651 11.1667 9.96515 11.6513 10.1964 12.1194C10.7402 13.2203 11.3836 14.2606 12.2056 15.182C13.651 16.8024 15.4759 17.8594 17.4586 18.6788C17.5883 18.7324 17.7247 18.7698 17.8665 18.8088L17.8665 18.8088L17.8666 18.8088C17.934 18.8273 18.0026 18.8461 18.0722 18.8672C18.1316 18.849 18.1921 18.8336 18.2523 18.8184L18.2523 18.8184C18.3828 18.7853 18.5119 18.7526 18.6259 18.6916ZM17.3352 12.6554C17.2121 12.6576 17.2605 12.6552 17.3073 12.6538C17.1089 12.6469 17.0011 12.5309 16.9798 12.3423L16.9734 12.2847L16.9734 12.2846C16.9604 12.1657 16.9473 12.0462 16.9188 11.9309C16.8537 11.6669 16.7124 11.4222 16.4889 11.2604C16.3834 11.184 16.2638 11.1283 16.1386 11.0925C16.054 11.0682 15.9677 11.0604 15.8816 11.0526H15.8816C15.8056 11.0457 15.7298 11.0388 15.6554 11.0207C15.483 10.9788 15.3876 10.84 15.4147 10.6793C15.4393 10.5331 15.5826 10.4189 15.7434 10.4305C16.7487 10.5026 17.4672 11.019 17.5697 12.1948L17.5704 12.2028C17.5775 12.2834 17.5849 12.3679 17.567 12.4448C17.5368 12.5738 17.444 12.641 17.3502 12.6532C17.3579 12.6533 17.3564 12.654 17.3352 12.6554ZM15.7125 9.67421C16.0502 9.72998 16.3833 9.82353 16.6913 9.97406C17.2006 10.223 17.6349 10.6345 17.9192 11.1238C18.1957 11.6 18.3149 12.1468 18.3158 12.6941C18.3159 12.7778 18.32 12.8661 18.3469 12.9439C18.4376 13.2057 18.8317 13.1732 18.9004 12.9138C18.9145 12.8604 18.9193 12.8046 18.9226 12.7663V12.7663C18.9238 12.7533 18.9247 12.7423 18.9258 12.7342L18.9174 12.5853L18.9174 12.5853C18.9113 12.4764 18.9061 12.3823 18.8989 12.2882C18.8962 12.253 18.8899 12.2181 18.8835 12.1831L18.8835 12.1831C18.88 12.164 18.8765 12.145 18.8737 12.1258C18.6946 10.9291 18.081 10.0329 17.0068 9.46508C16.4786 9.1859 15.9047 9.05773 15.3105 9.02404C15.1297 9.01385 15.0085 9.13296 15.0005 9.29856C14.9921 9.47528 15.0879 9.58957 15.2676 9.61448C15.3236 9.62225 15.3796 9.6292 15.4357 9.63614L15.4357 9.63615H15.4358C15.5282 9.6476 15.6207 9.65906 15.7125 9.67421ZM20.0377 13.6523C19.8294 13.6548 19.7357 13.4813 19.7221 13.2954C19.7167 13.2207 19.7116 13.1459 19.7065 13.0711C19.6865 12.7775 19.6665 12.4836 19.6259 12.1928C19.3568 10.2662 17.8132 8.67227 15.8863 8.33024C15.6866 8.29477 15.4836 8.27732 15.2806 8.25986L15.2805 8.25986C15.1889 8.25198 15.0972 8.24409 15.0059 8.23455L14.9746 8.23137C14.7939 8.21324 14.5748 8.19125 14.5359 7.97426C14.5014 7.78168 14.6647 7.62834 14.849 7.61849C14.8844 7.61659 14.92 7.61717 14.9555 7.61774C14.9703 7.61798 14.985 7.61822 14.9998 7.61828C17.3854 7.68484 15.3492 7.62907 15.0379 7.61963C17.6194 7.70781 19.7352 9.4197 20.1904 11.964C20.2587 12.346 20.2885 12.7355 20.3181 13.1238L20.3307 13.2873C20.3452 13.4732 20.2394 13.6499 20.0377 13.6523Z" fill="white"/>
</svg>
