<svg width="30" height="30" viewBox="0 0 30 30" fill="none" xmlns="http://www.w3.org/2000/svg">
<path fill-rule="evenodd" clip-rule="evenodd" d="M15 0C6.717 0 0 6.71698 0 15C0 23.283 6.717 30 15 30C23.283 30 30 23.283 30 15C30 6.71698 23.283 0 15 0ZM24.3727 15.0153C24.3727 15.0153 24.3727 18.0574 23.9868 19.5243C23.7705 20.3272 23.1375 20.9603 22.3345 21.1764C20.8676 21.5625 15 21.5625 15 21.5625C15 21.5625 9.14774 21.5625 7.6655 21.161C6.86258 20.945 6.22949 20.3116 6.0132 19.5087C5.62708 18.0574 5.62708 15 5.62708 15C5.62708 15 5.62708 11.9582 6.0132 10.4913C6.22926 9.68835 6.87791 9.03967 7.6655 8.82361C9.1324 8.4375 15 8.4375 15 8.4375C15 8.4375 20.8676 8.4375 22.3345 8.83896C23.1375 9.05502 23.7705 9.68835 23.9868 10.4913C24.3883 11.9582 24.3727 15.0153 24.3727 15.0153ZM18.011 15.0002L13.1317 17.8104V12.1899L18.011 15.0002Z" fill="white"/>
</svg>
