<svg width="131" height="22" viewBox="0 0 131 22" fill="none" xmlns="http://www.w3.org/2000/svg">
<path fill-rule="evenodd" clip-rule="evenodd" d="M24.6173 19.8977C24.2642 20.1041 23.8824 20.1677 23.4755 20.1706C20.1817 20.1944 16.8903 20.1109 13.6016 19.9355C12.7592 19.8905 11.918 19.8225 11.0769 19.7546L11.0769 19.7545L11.0768 19.7545L11.0767 19.7545C10.7674 19.7295 10.4581 19.7045 10.1488 19.6807C9.65361 19.6426 9.22974 19.4427 8.88515 19.0848C8.65579 18.8465 8.40778 18.6314 8.13696 18.4423C7.15997 17.7604 6.7817 16.8101 6.87242 15.6408C6.97387 15.6536 6.97443 15.7194 6.97494 15.7783C6.97508 15.7945 6.97521 15.8101 6.97743 15.824C7.16824 17.0168 7.99579 17.8013 9.19949 17.8965C12.4161 18.1505 15.637 18.3166 18.8644 18.2969C19.7842 18.2912 20.7042 18.2365 21.6232 18.1818L21.8247 18.1698C22.5079 18.1294 23.0048 17.6885 23.0922 17.0938C23.1823 16.4805 22.8561 15.8774 22.298 15.6573C22.0716 15.568 21.8325 15.5491 21.5797 15.529L21.5797 15.529C21.4265 15.5169 21.2683 15.5043 21.105 15.4755C21.292 15.1652 21.5382 14.9456 21.8116 14.7573C22.7707 14.0965 23.8583 13.7488 24.9753 13.4765C25.124 13.4403 25.2731 13.4054 25.4415 13.3661L25.4417 13.3661C25.5301 13.3454 25.624 13.3235 25.7259 13.2995C25.4753 13.2314 25.2795 13.2731 25.0944 13.3124C25.0474 13.3224 25.0012 13.3322 24.955 13.3401C23.9344 13.5132 22.9403 13.7783 22.0007 14.224C21.4898 14.4665 21.0481 14.7974 20.7161 15.2588C20.6287 15.3804 20.5487 15.4434 20.3871 15.4324C15.9631 15.132 11.5337 15.1495 7.10351 15.2096C7.09022 15.2098 7.07689 15.2075 7.0503 15.2029C7.03216 15.1998 7.00784 15.1956 6.97315 15.1904C7.12415 14.8942 7.3486 14.7087 7.60905 14.56C8.13306 14.2607 8.69315 14.046 9.26852 13.8693C10.8361 13.3877 12.4525 13.1493 14.0708 12.9321C14.9816 12.8097 15.8971 12.708 16.8139 12.6528C17.1225 12.6341 17.2829 12.4536 17.4428 12.2736C17.5204 12.1863 17.5979 12.0991 17.6921 12.0305L17.7569 12.0762C17.5942 12.378 17.7895 12.3847 17.9835 12.3914L18.0185 12.3927C18.4015 12.4084 18.7845 12.4247 19.1675 12.4411L19.1675 12.4411L19.1676 12.4411L19.1677 12.4411C20.0552 12.4789 20.9427 12.5168 21.8305 12.5467C23.8404 12.6144 25.8509 12.6064 27.8614 12.5853C27.9977 12.5839 28.1341 12.5788 28.2702 12.5717C28.8953 12.5395 28.9655 12.4699 28.9839 11.8434C28.9899 11.639 28.9937 11.4345 28.9975 11.23V11.23V11.2299V11.2299L28.9975 11.2297L28.9975 11.2295L28.9975 11.2294C29.0035 10.9115 29.0094 10.5937 29.0235 10.2763C29.0321 10.0837 28.9691 10.0237 28.7796 10.0174L28.3348 10.0024C25.6677 9.91205 23.0008 9.82174 20.3358 10.0675C20.2012 10.0799 20.0668 10.095 19.9325 10.1101L19.9325 10.1101C19.83 10.1216 19.7276 10.1332 19.625 10.1435C19.6052 10.1455 19.5848 10.142 19.5451 10.1352L19.5451 10.1352C19.5193 10.1307 19.4853 10.1249 19.4381 10.1183C19.9055 9.91304 20.3282 9.84631 20.7515 9.78847C22.6592 9.52768 24.5786 9.5054 26.4981 9.54427C27.255 9.55949 28.0114 9.5962 28.7679 9.63291C29.3047 9.65897 29.8417 9.68502 30.3788 9.7034C31.1968 9.73145 31.8651 10.0647 32.4339 10.6307C32.8867 11.0812 33.2902 11.5729 33.5985 12.1328C33.7068 12.3295 33.8323 12.3951 34.0512 12.392C34.3917 12.3871 34.7296 12.447 35.0553 12.552C36.1243 12.8969 36.6009 13.8432 36.2373 14.9112C36.1178 15.2624 35.9046 15.5594 35.6908 15.8573L35.6908 15.8573C35.6349 15.9353 35.5789 16.0133 35.5245 16.0924C35.5663 15.7935 35.589 15.502 35.5692 15.2072C35.5584 15.0467 35.4987 14.9166 35.3458 14.8556C35.1816 14.7902 35.0379 14.8392 34.9113 14.9614C34.7536 15.1135 34.6379 15.2906 34.5432 15.4876L34.5055 15.5662C34.3319 15.9277 34.158 16.2897 33.9658 16.6414C33.4985 17.4954 32.7914 18.0716 31.8726 18.3851C30.5966 18.8207 29.32 19.2549 28.0395 19.6765C27.8306 19.7453 27.7309 19.8438 27.6919 20.0644C27.6022 20.5715 27.422 21.0393 27.0689 21.4383C26.9266 21.5991 26.7861 21.6876 26.5832 21.6901C25.8108 21.6995 25.0386 21.6935 24.2726 21.58C23.7845 21.5076 23.3855 20.8968 23.4891 20.4132C23.5158 20.2888 23.592 20.2936 23.6656 20.2983C23.6876 20.2997 23.7093 20.301 23.7295 20.299C24.0717 20.264 24.4013 20.1991 24.6748 19.97L24.689 19.965C24.7594 19.9406 24.8548 19.9075 24.8001 19.8294C24.7582 19.7696 24.7082 19.8163 24.6614 19.86C24.6462 19.8741 24.6314 19.8879 24.6173 19.8977ZM27.8275 19.5145C28.0693 19.1785 28.2739 18.8299 28.432 18.4559C28.6246 18.0006 28.741 17.5294 28.6819 17.0305C28.5951 16.2968 27.8686 15.9162 27.2847 16.2733C27.8488 17.2912 27.9057 18.3852 27.8275 19.5145ZM25.8666 20.7235C25.856 20.7193 25.8438 20.7145 25.8307 20.708C25.8139 20.8496 25.8614 20.9718 25.9083 21.0925C25.9493 21.1977 25.9897 21.3018 25.9867 21.4166C25.6007 20.9686 25.5584 20.4303 25.5156 19.8855C25.4996 19.6828 25.4836 19.4792 25.4498 19.2789C25.3783 19.2952 25.333 19.348 25.2836 19.4055C25.2192 19.4805 25.1479 19.5635 25.0027 19.5836C25.245 19.2425 25.4562 18.9475 25.6672 18.6625C25.9814 18.2377 26.2114 17.776 26.4276 17.3027C26.5319 17.0745 26.6435 16.8529 26.8058 16.66C27.0217 16.4032 27.1011 16.4096 27.2496 16.7203C27.4429 17.1249 27.5176 17.5634 27.563 18.0037C27.6565 18.9107 27.5398 19.7922 27.1948 20.6397C27.0804 20.9209 26.9505 21.1783 26.5886 21.202C26.2374 21.2248 26.0436 21.0328 25.9047 20.7465C25.8998 20.7365 25.8857 20.731 25.8666 20.7235ZM23.3216 17.9411C24.4734 18.0381 25.053 17.5192 25.0563 16.4173C25.0573 16.0694 25.1765 15.7776 25.4278 15.5364C25.767 15.2108 26.1629 14.974 26.5811 14.7646C27.7107 14.1992 28.928 13.9439 30.1603 13.747C30.5636 13.6825 30.9691 13.6335 31.3748 13.5845L31.3748 13.5845C31.5567 13.5625 31.7386 13.5405 31.9203 13.5171C31.8496 13.4711 31.7827 13.4629 31.7157 13.463C30.2501 13.4644 28.7926 13.5741 27.347 13.8171C26.282 13.9961 25.2446 14.2689 24.2809 14.7761C23.7967 15.031 23.4872 15.4345 23.5347 15.9741C23.5944 16.65 23.6187 17.3051 23.3216 17.9411ZM31.7654 12.8675C31.6335 12.8626 31.5073 12.8578 31.3907 12.8689C31.2807 12.8689 31.1787 12.8696 31.0823 12.8703C30.8835 12.8716 30.708 12.8728 30.5327 12.8674C30.0736 12.8533 29.7378 12.5969 29.6853 12.1454C29.6348 11.7117 29.6103 11.2748 29.5859 10.838C29.5749 10.6415 29.5639 10.445 29.5505 10.2488C29.5376 10.0578 29.6489 10.0663 29.7549 10.0744C29.7814 10.0764 29.8076 10.0784 29.8314 10.0773C31.2848 10.0077 32.2502 10.73 32.8946 11.9708C33.157 12.4758 33.1272 12.5571 32.5929 12.775C32.3157 12.8882 32.0292 12.8774 31.7654 12.8675Z" fill="white"/>
<path fill-rule="evenodd" clip-rule="evenodd" d="M21.6364 0.644531C28.7196 0.797803 34.4706 3.61499 38.7532 9.2971C40.9876 12.2615 42.256 15.627 42.6715 19.3154C42.749 20.0047 42.7808 20.6958 42.8102 21.3883C42.8222 21.6735 42.7254 21.7253 42.4686 21.7189C41.8541 21.704 41.8471 21.7162 41.8246 21.1062C41.6862 17.3695 40.6492 13.9089 38.5806 10.7867C35.7383 6.49681 31.8358 3.64298 26.8579 2.29581C24.3509 1.61744 21.8043 1.47108 19.2268 1.79317C15.2771 2.28662 11.7755 3.82544 8.75752 6.39853C5.09369 9.52233 2.8337 13.4856 1.95715 18.2264C1.76278 19.2777 1.65088 20.3396 1.67269 21.4107C1.67752 21.6443 1.6157 21.722 1.37124 21.7195C0.666241 21.7125 0.651697 21.7233 0.679242 21.0308C0.874696 16.1185 2.54079 11.7732 5.73533 8.02908C7.89433 5.49862 10.5133 3.58162 13.5787 2.29117C15.6634 1.41362 17.84 0.892622 20.0984 0.719531C20.6086 0.68044 21.1181 0.649349 21.6364 0.644531Z" fill="white"/>
<path fill-rule="evenodd" clip-rule="evenodd" d="M20.5961 0.00155156C27.0069 0.0137334 31.7015 1.71219 35.7587 5.12328C39.2386 8.049 41.5743 11.7201 42.7537 16.1175C43.2178 17.8479 43.4368 19.6126 43.4708 21.4011C43.473 21.5196 43.5758 21.7244 43.3052 21.7144C43.0474 21.7047 43.1449 21.5046 43.1427 21.384C43.0798 17.966 42.3059 14.7175 40.6603 11.7212C37.511 5.98719 32.7605 2.23201 26.356 0.845006C19.3792 -0.665903 13.078 0.967367 7.65619 5.63619C3.84092 8.92155 1.54382 13.1186 0.650552 18.0787C0.452734 19.1769 0.364734 20.2841 0.338734 21.3983C0.335916 21.5195 0.429006 21.7233 0.165097 21.7142C-0.074266 21.7057 0.0166431 21.5211 0.0182794 21.4098C0.0837339 16.8867 1.41328 12.7743 4.0541 9.09727C6.49837 5.69374 9.65177 3.17046 13.5357 1.58882C16.1491 0.524551 18.8699 -0.0334484 20.5961 0.00155156Z" fill="white"/>
<path fill-rule="evenodd" clip-rule="evenodd" d="M18.0566 7.16772C19.3831 5.6128 20.7119 4.05971 22.0327 2.49998C22.1759 2.3309 22.2508 2.34081 22.3928 2.5008C23.1471 3.35007 23.9179 4.18471 24.6704 5.03535C24.8133 5.19698 24.8893 5.1938 25.036 5.04799C25.5116 4.5758 26.0066 4.12344 26.4826 3.65171C26.6378 3.49799 26.729 3.48671 26.8818 3.66299C27.4397 4.30653 28.023 4.92817 28.5784 5.57371C28.7373 5.75826 28.8568 5.76898 29.0637 5.66207C29.5064 5.43353 29.9678 5.24172 30.4159 5.02316C30.5938 4.93644 30.7463 4.92825 30.9271 5.02471C34.5874 6.97689 37.403 9.73332 39.0799 13.5752C39.1552 13.7478 39.2517 13.918 39.2571 14.136C39.1191 14.106 39.113 13.9922 39.0743 13.9149C37.2501 10.2652 34.444 7.59389 30.878 5.67671C30.732 5.59816 30.6146 5.59816 30.4675 5.66944C29.9371 5.92607 29.3963 6.16162 28.8688 6.4238C28.6881 6.51353 28.5848 6.51199 28.4444 6.34634C27.9153 5.72289 27.3611 5.12098 26.8297 4.49944C26.6895 4.33553 26.6094 4.33889 26.4598 4.48581C25.9816 4.95507 25.4808 5.40144 25.0044 5.87262C24.8506 6.02471 24.7753 6.01098 24.6426 5.85326C23.9043 4.97553 23.1489 4.11225 22.4155 3.23053C22.245 3.02562 22.162 3.03371 21.9832 3.22216C20.7869 4.4828 19.5776 5.73108 18.3713 6.98225C18.2933 7.06317 18.2059 7.13471 18.1228 7.21062L18.0566 7.16772Z" fill="white"/>
<path fill-rule="evenodd" clip-rule="evenodd" d="M17.9947 8.51149C17.3152 7.89649 16.626 7.29158 15.9618 6.66049C15.7575 6.46632 15.6442 6.47858 15.4455 6.65868C14.899 7.15403 14.3203 7.61404 13.7755 8.11122C13.5799 8.28977 13.4609 8.26977 13.2753 8.11149C12.7143 7.63276 12.1304 7.18049 11.5721 6.69858C11.3679 6.52231 11.2293 6.49377 10.9977 6.66931C8.12644 8.84604 5.71263 11.404 4.21172 14.7326C4.19317 14.7738 4.17308 14.8146 4.1489 14.8525C4.13827 14.869 4.11527 14.8776 4.07227 14.9077C4.07336 14.6297 4.18872 14.4011 4.27554 14.1712C5.06535 12.0814 6.29781 10.2737 7.83108 8.66504C8.80445 7.64395 9.87203 6.72913 11.0239 5.91195C11.2398 5.75877 11.3791 5.73394 11.5974 5.93031C12.1624 6.43849 12.7646 6.9054 13.3395 7.40295C13.4917 7.53458 13.5813 7.53204 13.736 7.40722C14.3276 6.92967 14.9335 6.47004 15.5325 6.00177C15.6462 5.91295 15.7381 5.83831 15.8729 5.98995C16.581 6.78604 17.2975 7.57468 18.0094 8.3674C18.0291 8.3894 18.0311 8.4274 18.0415 8.45795C18.0258 8.47577 18.0103 8.49368 17.9947 8.51149Z" fill="white"/>
<path fill-rule="evenodd" clip-rule="evenodd" d="M19.9753 17.4949C20.0017 17.2201 20.0379 16.995 20.0415 16.7694C20.0478 16.3657 19.8224 16.1365 19.4191 16.1239C17.2735 16.0573 15.1281 15.9854 12.9822 15.9315C11.998 15.907 11.0171 15.8459 10.0332 15.7754C10.0778 15.6221 10.1981 15.6614 10.2925 15.6534C13.0266 15.4225 15.7604 15.4366 18.4935 15.6692C18.7985 15.6951 19.1009 15.7496 19.4047 15.7893C20.0493 15.8741 20.3464 16.2777 20.2097 16.9086C20.1677 17.1018 20.134 17.3073 19.9753 17.4949Z" fill="white"/>
<path fill-rule="evenodd" clip-rule="evenodd" d="M19.0349 17.7902C18.7104 17.818 18.3865 17.8582 18.0614 17.8714C15.4239 17.9779 12.7964 17.8587 10.1802 17.5044C9.77625 17.4497 9.54314 17.1864 9.55304 16.8225C9.66854 16.7966 9.67862 16.8985 9.71336 16.9613C9.83024 17.1725 10.0056 17.2532 10.2456 17.2542C12.9602 17.2654 15.6681 17.4214 18.373 17.6393C18.5981 17.6574 18.8223 17.6881 19.0469 17.7128C19.0429 17.7387 19.0389 17.7646 19.0349 17.7902Z" fill="white"/>
<path fill-rule="evenodd" clip-rule="evenodd" d="M34.0702 16.7409C34.0598 17.5498 33.9795 18.2668 34.2659 18.9448C34.3005 19.0268 34.3507 19.1032 34.4022 19.176C34.4145 19.1934 34.4615 19.1862 34.5189 19.1937C34.0812 18.4056 34.1519 17.5794 34.2185 16.7139C34.3668 16.8322 34.3224 16.9648 34.3252 17.0757C34.337 17.5532 34.354 18.0307 34.4884 18.4919C34.5467 18.6923 34.5961 18.9434 34.8746 18.9437C35.1189 18.9441 35.1464 18.7069 35.2276 18.5396C35.2615 18.4701 35.2858 18.3961 35.3198 18.3109C35.4162 18.6176 35.2914 18.9404 35.0224 19.1197C34.8267 19.25 34.6039 19.3027 34.3775 19.3115C33.9582 19.3281 33.537 19.3419 33.1184 19.3209C32.59 19.2944 32.3893 19.0852 32.2729 18.5589C32.2412 18.415 32.2748 18.3597 32.3991 18.3013C33.0868 17.9778 33.6036 17.4627 34.0702 16.7409Z" fill="white"/>
<path fill-rule="evenodd" clip-rule="evenodd" d="M11.686 20.1014C11.7021 20.1308 11.7183 20.1603 11.7344 20.1898C12.4201 20.9334 13.671 20.9846 14.3711 20.2975C14.4042 20.2882 14.4355 20.2718 14.4111 20.2343C14.4056 20.226 14.358 20.2451 14.3297 20.2514C13.4592 20.7378 12.6109 20.7089 11.7856 20.1426C11.76 20.1227 11.7344 20.1029 11.7088 20.0831C11.7042 20.0544 11.697 20.0124 11.661 20.0364C11.6288 20.0579 11.656 20.087 11.686 20.1014Z" fill="white"/>
<path fill-rule="evenodd" clip-rule="evenodd" d="M10.8945 19.8838C12.2163 19.9635 13.5286 20.0426 14.8389 20.1218C14.7289 20.5197 13.7826 21.0221 13.0895 21.0429C11.9943 21.0756 11.1583 20.6417 10.8945 19.8838Z" fill="white"/>
<path fill-rule="evenodd" clip-rule="evenodd" d="M20.5176 5.45359C20.8125 5.02141 21.1622 4.63451 21.5065 4.24241C21.6289 4.10305 21.7098 4.10969 21.8264 4.24459C22.1157 4.57914 22.4361 4.88914 22.7033 5.23986C22.8741 5.46413 23.0116 5.47977 23.2272 5.33032C23.3406 5.25169 23.4604 5.1565 23.6824 5.15613C23.4207 5.37423 23.2019 5.55014 22.991 5.73477C22.8713 5.83968 22.8101 5.74695 22.7384 5.67768C22.4527 5.40214 22.1443 5.1455 21.8899 4.84332C21.6917 4.60787 21.5746 4.65377 21.391 4.8425C21.1469 5.09341 20.8793 5.32232 20.5795 5.50878C20.5588 5.49032 20.5382 5.47195 20.5176 5.45359Z" fill="white"/>
<path fill-rule="evenodd" clip-rule="evenodd" d="M35.1612 17.9892C35.1698 17.3509 35.1813 16.685 35.0977 15.959C35.362 16.4134 35.3666 17.7259 35.1612 17.9892Z" fill="white"/>
<path fill-rule="evenodd" clip-rule="evenodd" d="M35.3711 18.0161C35.3995 17.7425 35.4278 17.4688 35.4563 17.1953C35.5078 17.4732 35.525 17.748 35.3711 18.0161Z" fill="white"/>
<path fill-rule="evenodd" clip-rule="evenodd" d="M34.2734 16.5452C34.2829 16.4676 34.2868 16.3938 34.2928 16.3936C34.3547 16.3919 34.3137 16.4407 34.3198 16.4673C34.3225 16.4789 34.3041 16.4955 34.2734 16.5452Z" fill="white"/>
<path fill-rule="evenodd" clip-rule="evenodd" d="M20.5801 5.50831C20.5506 5.56076 20.5133 5.58995 20.4531 5.55085C20.4748 5.51822 20.4966 5.48567 20.5182 5.45312C20.5388 5.47149 20.5595 5.48986 20.5801 5.50831Z" fill="white"/>
<path fill-rule="evenodd" clip-rule="evenodd" d="M17.9857 7.34435C17.9648 7.36152 17.9316 7.39749 17.9248 7.39302C17.8643 7.35385 17.9245 7.32975 17.9414 7.2998C17.9557 7.31514 17.9706 7.32993 17.9857 7.34435Z" fill="white"/>
<path fill-rule="evenodd" clip-rule="evenodd" d="M18.0554 7.27846C18.0322 7.30073 18.0089 7.32292 17.9856 7.34509C17.9705 7.33082 17.9557 7.316 17.9414 7.30073C17.9642 7.27373 17.9871 7.24673 18.01 7.21973C18.0252 7.23937 18.0403 7.25891 18.0554 7.27846Z" fill="white"/>
<path fill-rule="evenodd" clip-rule="evenodd" d="M18.0098 7.2201C18.0256 7.20276 18.0416 7.18532 18.0574 7.16797C18.0795 7.18231 18.1016 7.19665 18.1238 7.21098C18.1011 7.23371 18.0783 7.25635 18.0554 7.27909C18.0401 7.25946 18.025 7.23974 18.0098 7.2201Z" fill="white"/>
<path fill-rule="evenodd" clip-rule="evenodd" d="M18.0266 11.6468L18.0266 11.6468C18.0483 11.6253 18.07 11.6038 18.0997 11.6473C18.1019 11.6506 18.0857 11.6665 18.0694 11.6824L18.0694 11.6824C18.0618 11.6898 18.0542 11.6973 18.0485 11.7035L18.0484 11.7034C18.0042 11.8106 17.9301 11.8941 17.8399 11.9646L17.8317 11.8695C17.8906 11.8006 17.9497 11.7317 18.0088 11.663L18.0088 11.663C18.0148 11.6584 18.0207 11.6526 18.0266 11.6468ZM17.8397 11.9646L17.8315 11.8694L17.8181 11.8853C17.7978 11.9093 17.7775 11.9334 17.7573 11.9577L17.7574 11.9578L17.6934 12.0302L17.7584 12.076L17.8091 12.0165L17.8088 12.0162C17.8297 12.0054 17.8401 11.9882 17.8397 11.9646Z" fill="white"/>
<path fill-rule="evenodd" clip-rule="evenodd" d="M27.3273 18.1211C27.3194 18.2329 27.3103 18.3448 27.3038 18.4567C27.2612 19.1878 27.1258 19.8949 26.7619 20.5425C26.7013 20.6501 26.6523 20.7718 26.4979 20.7746C26.3272 20.7777 26.2613 20.6496 26.2116 20.5252C26.1364 20.3372 26.0666 20.1442 26.022 19.9472C25.9434 19.6011 25.8858 19.2503 25.8195 18.9015C25.7731 19.5096 25.7695 20.1096 26.0183 20.6749C26.1057 20.8733 26.2479 21.0204 26.4765 21.0284C26.7031 21.0365 26.8483 20.9078 26.9577 20.7128C27.4149 19.897 27.5204 19.0315 27.3273 18.1211Z" fill="white"/>
<path fill-rule="evenodd" clip-rule="evenodd" d="M24.6191 19.8975C24.6769 19.8574 24.7466 19.75 24.802 19.8291C24.8603 19.9126 24.7473 19.9447 24.6768 19.9697C24.6576 19.9456 24.6383 19.9216 24.6191 19.8975Z" fill="white"/>
<path fill-rule="evenodd" clip-rule="evenodd" d="M11.6858 20.1019C11.6561 20.0873 11.6287 20.058 11.6611 20.0365C11.6972 20.0123 11.7045 20.0545 11.7091 20.0833L11.6858 20.1019Z" fill="white"/>
<path fill-rule="evenodd" clip-rule="evenodd" d="M11.7087 20.084C11.7343 20.1039 11.7599 20.1238 11.7856 20.1437C11.7687 20.1596 11.7516 20.1753 11.7344 20.1911C11.7181 20.1616 11.7019 20.1319 11.6855 20.1025C11.6854 20.1026 11.7087 20.084 11.7087 20.084Z" fill="white"/>
<path fill-rule="evenodd" clip-rule="evenodd" d="M14.3281 20.2517C14.3566 20.2453 14.4044 20.2261 14.4099 20.2345C14.4344 20.2722 14.403 20.2886 14.3697 20.298C14.3545 20.2838 14.3406 20.2683 14.3281 20.2517Z" fill="white"/>
<path fill-rule="evenodd" clip-rule="evenodd" d="M27.3273 18.1211C27.5204 19.0315 27.4149 19.897 26.9577 20.7128C26.8483 20.9078 26.7031 21.0365 26.4765 21.0284C26.2479 21.0204 26.1057 20.8733 26.0183 20.6749C25.7695 20.1096 25.7731 19.5096 25.8195 18.9015C25.8858 19.2503 25.9434 19.6011 26.022 19.9472C26.0666 20.1442 26.1364 20.3372 26.2116 20.5252C26.2613 20.6496 26.3272 20.7777 26.4979 20.7746C26.6523 20.7718 26.7013 20.6501 26.7619 20.5425C27.1258 19.8949 27.2612 19.1878 27.3038 18.4567C27.3103 18.3448 27.3194 18.2329 27.3273 18.1211Z" fill="white"/>
<path d="M59.0156 16.5625C58.5938 17.0677 57.9974 17.4609 57.2266 17.7422C56.4557 18.0182 55.6016 18.1562 54.6641 18.1562C53.6797 18.1562 52.8151 17.9427 52.0703 17.5156C51.3307 17.0833 50.7578 16.4583 50.3516 15.6406C49.9505 14.8229 49.7448 13.862 49.7344 12.7578V11.9844C49.7344 10.849 49.9245 9.86719 50.3047 9.03906C50.6901 8.20573 51.2422 7.57031 51.9609 7.13281C52.6849 6.6901 53.5312 6.46875 54.5 6.46875C55.849 6.46875 56.9036 6.79167 57.6641 7.4375C58.4245 8.07812 58.875 9.01302 59.0156 10.2422H56.7344C56.6302 9.59115 56.3984 9.11458 56.0391 8.8125C55.6849 8.51042 55.1953 8.35938 54.5703 8.35938C53.7734 8.35938 53.1667 8.65885 52.75 9.25781C52.3333 9.85677 52.1224 10.7474 52.1172 11.9297V12.6562C52.1172 13.849 52.3438 14.75 52.7969 15.3594C53.25 15.9688 53.9141 16.2734 54.7891 16.2734C55.6693 16.2734 56.2969 16.0859 56.6719 15.7109V13.75H54.5391V12.0234H59.0156V16.5625ZM60.4219 13.6953C60.4219 12.8568 60.5833 12.1094 60.9062 11.4531C61.2292 10.7969 61.6927 10.2891 62.2969 9.92969C62.9062 9.57031 63.612 9.39062 64.4141 9.39062C65.5547 9.39062 66.4844 9.73958 67.2031 10.4375C67.9271 11.1354 68.3307 12.0833 68.4141 13.2812L68.4297 13.8594C68.4297 15.1562 68.0677 16.1979 67.3438 16.9844C66.6198 17.7656 65.6484 18.1562 64.4297 18.1562C63.2109 18.1562 62.237 17.7656 61.5078 16.9844C60.7839 16.2031 60.4219 15.1406 60.4219 13.7969V13.6953ZM62.6797 13.8594C62.6797 14.6615 62.8307 15.276 63.1328 15.7031C63.4349 16.125 63.8672 16.3359 64.4297 16.3359C64.9766 16.3359 65.4036 16.1276 65.7109 15.7109C66.0182 15.2891 66.1719 14.6172 66.1719 13.6953C66.1719 12.9089 66.0182 12.2995 65.7109 11.8672C65.4036 11.4349 64.9714 11.2188 64.4141 11.2188C63.862 11.2188 63.4349 11.4349 63.1328 11.8672C62.8307 12.2943 62.6797 12.9583 62.6797 13.8594ZM69.4688 13.6953C69.4688 12.8568 69.6302 12.1094 69.9531 11.4531C70.276 10.7969 70.7396 10.2891 71.3438 9.92969C71.9531 9.57031 72.6589 9.39062 73.4609 9.39062C74.6016 9.39062 75.5312 9.73958 76.25 10.4375C76.974 11.1354 77.3776 12.0833 77.4609 13.2812L77.4766 13.8594C77.4766 15.1562 77.1146 16.1979 76.3906 16.9844C75.6667 17.7656 74.6953 18.1562 73.4766 18.1562C72.2578 18.1562 71.2839 17.7656 70.5547 16.9844C69.8307 16.2031 69.4688 15.1406 69.4688 13.7969V13.6953ZM71.7266 13.8594C71.7266 14.6615 71.8776 15.276 72.1797 15.7031C72.4818 16.125 72.9141 16.3359 73.4766 16.3359C74.0234 16.3359 74.4505 16.1276 74.7578 15.7109C75.0651 15.2891 75.2188 14.6172 75.2188 13.6953C75.2188 12.9089 75.0651 12.2995 74.7578 11.8672C74.4505 11.4349 74.0182 11.2188 73.4609 11.2188C72.9089 11.2188 72.4818 11.4349 72.1797 11.8672C71.8776 12.2943 71.7266 12.9583 71.7266 13.8594ZM78.5156 13.7109C78.5156 12.3932 78.8099 11.3438 79.3984 10.5625C79.9922 9.78125 80.8021 9.39062 81.8281 9.39062C82.651 9.39062 83.3307 9.69792 83.8672 10.3125V6H86.1328V18H84.0938L83.9844 17.1016C83.4219 17.8047 82.6979 18.1562 81.8125 18.1562C80.8177 18.1562 80.0182 17.7656 79.4141 16.9844C78.8151 16.1979 78.5156 15.1068 78.5156 13.7109ZM80.7734 13.875C80.7734 14.6667 80.9115 15.2734 81.1875 15.6953C81.4635 16.1172 81.8646 16.3281 82.3906 16.3281C83.0885 16.3281 83.5807 16.0339 83.8672 15.4453V12.1094C83.5859 11.5208 83.099 11.2266 82.4062 11.2266C81.3177 11.2266 80.7734 12.1094 80.7734 13.875ZM91.0938 6.625L94.0156 14.875L96.9219 6.625H100V18H97.6484V14.8906L97.8828 9.52344L94.8125 18H93.2031L90.1406 9.53125L90.375 14.8906V18H88.0312V6.625H91.0938ZM101.547 13.6953C101.547 12.8568 101.708 12.1094 102.031 11.4531C102.354 10.7969 102.818 10.2891 103.422 9.92969C104.031 9.57031 104.737 9.39062 105.539 9.39062C106.68 9.39062 107.609 9.73958 108.328 10.4375C109.052 11.1354 109.456 12.0833 109.539 13.2812L109.555 13.8594C109.555 15.1562 109.193 16.1979 108.469 16.9844C107.745 17.7656 106.773 18.1562 105.555 18.1562C104.336 18.1562 103.362 17.7656 102.633 16.9844C101.909 16.2031 101.547 15.1406 101.547 13.7969V13.6953ZM103.805 13.8594C103.805 14.6615 103.956 15.276 104.258 15.7031C104.56 16.125 104.992 16.3359 105.555 16.3359C106.102 16.3359 106.529 16.1276 106.836 15.7109C107.143 15.2891 107.297 14.6172 107.297 13.6953C107.297 12.9089 107.143 12.2995 106.836 11.8672C106.529 11.4349 106.096 11.2188 105.539 11.2188C104.987 11.2188 104.56 11.4349 104.258 11.8672C103.956 12.2943 103.805 12.9583 103.805 13.8594ZM113.648 7.46875V9.54688H115.094V11.2031H113.648V15.4219C113.648 15.7344 113.708 15.9583 113.828 16.0938C113.948 16.2292 114.177 16.2969 114.516 16.2969C114.766 16.2969 114.987 16.2786 115.18 16.2422V17.9531C114.737 18.0885 114.281 18.1562 113.812 18.1562C112.229 18.1562 111.422 17.3568 111.391 15.7578V11.2031H110.156V9.54688H111.391V7.46875H113.648ZM115.766 13.6953C115.766 12.8568 115.927 12.1094 116.25 11.4531C116.573 10.7969 117.036 10.2891 117.641 9.92969C118.25 9.57031 118.956 9.39062 119.758 9.39062C120.898 9.39062 121.828 9.73958 122.547 10.4375C123.271 11.1354 123.674 12.0833 123.758 13.2812L123.773 13.8594C123.773 15.1562 123.411 16.1979 122.688 16.9844C121.964 17.7656 120.992 18.1562 119.773 18.1562C118.555 18.1562 117.581 17.7656 116.852 16.9844C116.128 16.2031 115.766 15.1406 115.766 13.7969V13.6953ZM118.023 13.8594C118.023 14.6615 118.174 15.276 118.477 15.7031C118.779 16.125 119.211 16.3359 119.773 16.3359C120.32 16.3359 120.747 16.1276 121.055 15.7109C121.362 15.2891 121.516 14.6172 121.516 13.6953C121.516 12.9089 121.362 12.2995 121.055 11.8672C120.747 11.4349 120.315 11.2188 119.758 11.2188C119.206 11.2188 118.779 11.4349 118.477 11.8672C118.174 12.2943 118.023 12.9583 118.023 13.8594ZM129.914 11.6641C129.607 11.6224 129.336 11.6016 129.102 11.6016C128.247 11.6016 127.688 11.8906 127.422 12.4688V18H125.164V9.54688H127.297L127.359 10.5547C127.812 9.77865 128.44 9.39062 129.242 9.39062C129.492 9.39062 129.727 9.42448 129.945 9.49219L129.914 11.6641Z" fill="white"/>
</svg>
