<svg width="44" height="48" viewBox="0 0 44 48" fill="none" xmlns="http://www.w3.org/2000/svg">
<path fill-rule="evenodd" clip-rule="evenodd" d="M44 22.0746C42.3968 11.6866 33.4899 2.73134 22.9798 2.19403V0.940299C22.9798 -0.313433 21.1984 -0.313433 21.1984 0.940299V2.19403C10.5101 2.73134 1.4251 11.8657 0 22.0746C2.67206 19.7463 6.59109 19.9254 8.19433 22.0746C10.332 19.7463 15.1417 19.7463 17.4575 22.0746C18.3482 21.1791 19.7733 20.6418 21.1984 20.4627V24.2239C21.1984 25.4776 22.9798 25.4776 22.9798 24.2239V20.4627C24.4049 20.6418 25.83 21.1791 26.7206 22.0746C28.8583 19.7463 33.668 19.7463 35.9838 22.0746C37.7652 19.7463 42.0405 19.7463 44 22.0746ZM33.1336 26.0149H10.6883H10.5101L8.19433 33.3582L7.30364 33C7.30364 32.4627 7.30364 31.5672 6.76923 31.5672H4.98785C4.2753 31.5672 4.2753 33.8955 4.98785 33.8955H6.76923H6.94737L8.01619 34.791V44.4627C8.01619 44.6418 8.19433 45 8.37247 45H9.08502V47.3284C9.08502 48.2239 13.8947 48.2239 13.8947 47.3284V45H30.1053V47.3284C30.1053 48.2239 34.915 48.2239 34.915 47.3284V45H35.6275C35.8057 45 35.9838 44.6418 35.9838 44.4627V34.791L37.0526 33.8955H37.2308H39.0121C39.7247 33.8955 39.7247 31.5672 39.0121 31.5672H37.2308C36.6964 31.5672 36.6964 32.4627 36.6964 33L35.8057 33.3582L33.4899 26.0149H33.1336ZM9.26316 33.5373C9.97571 31.3881 10.6883 29.2388 11.4008 27.2687H32.5992L34.7368 33.5373H9.26316ZM15.6761 38.194C15.1417 38.194 15.1417 36.9403 15.6761 36.9403H28.3239C28.8583 36.9403 28.8583 38.194 28.3239 38.194H15.6761ZM15.6761 40.5224C15.1417 40.5224 15.1417 39.2687 15.6761 39.2687H28.3239C28.8583 39.2687 28.8583 40.5224 28.3239 40.5224H15.6761ZM15.6761 42.8507C15.1417 42.8507 15.1417 41.597 15.6761 41.597H28.3239C28.8583 41.597 28.8583 42.8507 28.3239 42.8507H15.6761ZM31.3522 39.806C30.1053 39.806 30.1053 36.2239 31.3522 36.2239H33.8462C35.2713 36.2239 35.2713 39.806 33.8462 39.806H31.3522ZM31.1741 40.7015H34.2024C35.0931 40.7015 35.0931 43.209 34.2024 43.209H31.1741C30.1053 43.209 30.1053 40.7015 31.1741 40.7015ZM12.6478 36.2239H10.1538C8.72874 36.2239 8.72874 39.806 10.1538 39.806H12.6478C13.8947 39.806 13.8947 36.2239 12.6478 36.2239ZM12.8259 40.7015H9.79757C8.90688 40.7015 8.90688 43.209 9.79757 43.209H12.8259C13.8947 43.209 13.8947 40.7015 12.8259 40.7015Z" fill="#2F76F0"/>
</svg>
