<svg width="46" height="48" viewBox="0 0 46 48" fill="none" xmlns="http://www.w3.org/2000/svg">
<path fill-rule="evenodd" clip-rule="evenodd" d="M35.9004 24.7346C38.4507 25.0807 40.8043 26.2555 42.6361 28.1195C44.7975 30.3182 45.9877 33.2281 45.9877 36.3131C45.9877 42.7573 40.7487 48 34.3088 48C30.8492 48 27.6515 46.5154 25.4275 43.9028H5.66345C2.54077 43.9028 0 41.3621 0 38.239V5.66345C0 2.54077 2.54077 0 5.66382 0H30.2369C33.3596 0 35.9004 2.54077 35.9004 5.66345V24.7346ZM2.8125 5.66345V38.239C2.8125 39.8112 4.09167 41.09 5.66382 41.09H23.6473C22.9786 39.6013 22.63 37.9849 22.63 36.3131C22.63 30.2812 27.2197 25.3026 33.0879 24.6899V5.66345C33.0879 4.09167 31.8091 2.8125 30.2369 2.8125H5.66382C4.09167 2.8125 2.8125 4.09167 2.8125 5.66345ZM34.3088 45.1875C31.5004 45.1875 28.9186 43.8981 27.2249 41.6503C26.0588 40.1023 25.4421 38.257 25.4421 36.3131C25.4421 31.4198 29.4199 27.4387 34.3088 27.4387C34.355 27.4387 34.4015 27.4395 34.4476 27.4402L34.4692 27.4406C36.8031 27.4819 38.9912 28.4231 40.6304 30.0908C42.2714 31.7604 43.1752 33.9705 43.1752 36.3131C43.1752 41.2064 39.1978 45.1875 34.3088 45.1875ZM7.19604 9.24719H15.5889C16.3652 9.24719 16.9951 9.87671 16.9951 10.6534C16.9951 11.4302 16.3652 12.0597 15.5889 12.0597H7.19604C6.41931 12.0597 5.78979 11.4302 5.78979 10.6534C5.78979 9.87671 6.41931 9.24719 7.19604 9.24719ZM7.19604 14.8726H15.5889C16.3652 14.8726 16.9951 15.5021 16.9951 16.2788C16.9951 17.0555 16.3652 17.6851 15.5889 17.6851H7.19604C6.41931 17.6851 5.78979 17.0555 5.78979 16.2788C5.78979 15.5021 6.41931 14.8726 7.19604 14.8726ZM15.5889 20.4979H7.19604C6.41931 20.4979 5.78979 21.1274 5.78979 21.9042C5.78979 22.6809 6.41931 23.3104 7.19604 23.3104H15.5889C16.3652 23.3104 16.9951 22.6809 16.9951 21.9042C16.9951 21.1274 16.3652 20.4979 15.5889 20.4979ZM7.19604 26.1233H15.5889C16.3652 26.1233 16.9951 26.7528 16.9951 27.5295C16.9951 28.3063 16.3652 28.9358 15.5889 28.9358H7.19604C6.41931 28.9358 5.78979 28.3063 5.78979 27.5295C5.78979 26.7528 6.41931 26.1233 7.19604 26.1233ZM15.5889 31.8428H7.19604C6.41931 31.8428 5.78979 32.4727 5.78979 33.249C5.78979 34.0258 6.41931 34.6553 7.19604 34.6553H15.5889C16.3652 34.6553 16.9951 34.0258 16.9951 33.249C16.9951 32.4727 16.3652 31.8428 15.5889 31.8428ZM28.7043 12.0597H20.3115C19.5352 12.0597 18.9053 11.4302 18.9053 10.6534C18.9053 9.87671 19.5352 9.24719 20.3115 9.24719H28.7043C29.4811 9.24719 30.1106 9.87671 30.1106 10.6534C30.1106 11.4302 29.4811 12.0597 28.7043 12.0597ZM20.3115 17.6851H28.7043C29.4811 17.6851 30.1106 17.0555 30.1106 16.2788C30.1106 15.5021 29.4811 14.8726 28.7043 14.8726H20.3115C19.5352 14.8726 18.9053 15.5021 18.9053 16.2788C18.9053 17.0555 19.5352 17.6851 20.3115 17.6851ZM24.3538 20.4979C25.1305 20.4979 25.76 21.1274 25.76 21.9042C25.76 22.6809 25.1305 23.3104 24.3538 23.3104H20.3115C19.5352 23.3104 18.9053 22.6809 18.9053 21.9042C18.9053 21.1274 19.5352 20.4979 20.3115 20.4979H24.3538ZM39.0817 32.4364C38.476 31.9504 37.5912 32.0475 37.1049 32.6532L33.483 37.1686L31.2407 35.5441C30.6119 35.0881 29.7323 35.2288 29.2767 35.8575C28.8212 36.4867 28.9618 37.366 29.5906 37.8215L32.9169 40.2316C33.1659 40.4117 33.4545 40.4993 33.7412 40.4993C34.1539 40.4993 34.5619 40.318 34.8387 39.9727L39.2988 34.4132C39.7848 33.8075 39.6877 32.9224 39.0817 32.4364Z" fill="#2F76F0"/>
</svg>
