<svg width="45" height="48" viewBox="0 0 45 48" fill="none" xmlns="http://www.w3.org/2000/svg">
<path fill-rule="evenodd" clip-rule="evenodd" d="M0 10.1511C1.00962 29.2931 8.36539 41.7644 22.5 48C36.4904 41.7644 43.9904 29.2931 45 10.1511L22.5 0L0 10.1511ZM42.9808 11.4562C41.9712 26.3927 36.4904 39.2991 22.5 45.8248C8.36539 39.2991 3.02885 26.3927 2.01923 11.4562L22.5 2.17523L42.9808 11.4562ZM9.51923 19.287C9.51923 28.858 15.2885 36.6888 22.5 36.6888C29.7115 36.6888 35.4808 28.858 35.4808 19.287C35.4808 17.6918 35.3365 16.0967 35.0481 14.5015C30.8654 14.9366 25.8173 13.7764 22.5 11.3112C19.0385 13.7764 14.1346 14.9366 9.95192 14.5015C9.66346 16.0967 9.51923 17.6918 9.51923 19.287ZM32.5962 17.4018C33.1731 23.6375 30.1442 33.7885 22.5 33.7885V14.6465C25.5288 16.3867 29.1346 17.2568 32.5962 17.4018Z" fill="#2F76F0"/>
</svg>
