<svg width="57" height="48" viewBox="0 0 57 48" fill="none" xmlns="http://www.w3.org/2000/svg">
<path d="M26.7405 0.741947C25.7877 2.41 24.8291 4.07303 23.8762 5.74109C22.3493 8.39892 20.8281 11.0568 19.3012 13.7146C18.9511 14.3276 18.6009 14.9405 18.245 15.5535C18.5895 15.3224 18.9339 15.0912 19.2725 14.8601C17.2463 15.1465 15.22 15.4329 13.1937 15.7142C9.96194 16.1715 6.73021 16.6236 3.49847 17.0808C2.75225 17.1864 2.01176 17.2919 1.26554 17.3974C0.691516 17.4778 0.209339 17.9852 0.060094 18.4525C-0.100632 18.97 0.0658342 19.5427 0.502089 19.9196C1.99454 21.2108 3.48699 22.497 4.97945 23.7882C7.35589 25.8432 9.73807 27.8981 12.1145 29.958C12.6598 30.4303 13.2052 30.9026 13.7505 31.3749C13.6012 30.8875 13.4577 30.3951 13.3085 29.9078C12.9813 31.7366 12.6541 33.5655 12.3326 35.3943C11.816 38.2983 11.2994 41.2023 10.7828 44.1064C10.6622 44.7696 10.5474 45.4378 10.4269 46.101C10.381 46.3673 10.3408 46.6336 10.4269 46.9049C10.5245 47.2214 10.7483 47.4877 11.0468 47.6887C11.6094 48.0655 12.3384 48.0956 12.9583 47.8042C14.7722 46.9652 16.5919 46.1311 18.4058 45.2921C21.2988 43.9556 24.1976 42.6192 27.0907 41.2827C27.7566 40.9762 28.4224 40.6647 29.094 40.3583C28.5143 40.3583 27.9345 40.3583 27.3547 40.3583C29.1686 41.1973 30.9883 42.0313 32.8022 42.8704C35.6953 44.2068 38.5941 45.5433 41.4871 46.8797C42.153 47.1862 42.8188 47.4977 43.4904 47.8042C44.1104 48.0906 44.8394 48.0705 45.4019 47.6887C45.643 47.5229 45.8152 47.3319 45.93 47.0857C46.0908 46.7491 46.0793 46.4627 46.0161 46.106C45.6889 44.2772 45.3618 42.4483 45.0403 40.6195C44.5237 37.7155 44.0071 34.8115 43.4904 31.9074C43.3699 31.2442 43.2551 30.576 43.1346 29.9128C42.9853 30.4002 42.8418 30.8925 42.6926 31.3799C44.185 30.0887 45.6775 28.8025 47.1699 27.5112C49.5464 25.4563 51.9285 23.4014 54.305 21.3414C54.8503 20.8691 55.3956 20.3969 55.9409 19.9246C56.3772 19.5478 56.5437 18.975 56.3829 18.4575C56.2394 17.9953 55.7515 17.4878 55.1775 17.4024C53.1512 17.116 51.1249 16.8296 49.0986 16.5483C45.8669 16.0911 42.6352 15.6389 39.4034 15.1817C38.6572 15.0762 37.9167 14.9707 37.1705 14.8651C37.5149 15.0963 37.8593 15.3274 38.198 15.5585C37.2451 13.8904 36.2865 12.2274 35.3336 10.5594C33.8067 7.90152 32.2856 5.24369 30.7587 2.58585C30.4085 1.97289 30.0584 1.35993 29.7025 0.746972C29.2949 0.0385507 28.0952 -0.217687 27.349 0.204351C26.5224 0.671608 26.2985 1.51066 26.7291 2.2643C27.6705 3.90221 28.6061 5.54012 29.5475 7.17803C31.0572 9.81074 32.5668 12.4435 34.0765 15.0762C34.4439 15.7193 34.7998 16.3674 35.1844 17.0055C35.6608 17.7993 36.5276 17.7993 37.3886 17.9199C40.4711 18.352 43.5536 18.7891 46.6361 19.2212C49.1331 19.5729 51.6358 19.9246 54.1328 20.2763C54.173 20.2813 54.2131 20.2863 54.2533 20.2914C54.0008 19.4523 53.7482 18.6132 53.4956 17.7742C51.9802 19.0855 50.4591 20.3969 48.9436 21.7132C46.5615 23.7681 44.185 25.8281 41.8028 27.883C41.2862 28.3251 40.7581 28.7623 40.2587 29.2195C39.8684 29.5762 39.7019 30.0083 39.7765 30.4956C39.788 30.576 39.7995 30.6464 39.811 30.7267C39.8225 30.8021 39.8397 30.8724 39.8512 30.9478C39.9143 31.2844 39.9717 31.6261 40.0348 31.9627C40.5285 34.7361 41.0222 37.5045 41.5158 40.2779C41.9004 42.4483 42.2907 44.6188 42.6753 46.7943C42.6811 46.8295 42.6868 46.8647 42.6926 46.8998C43.5364 46.3321 44.3802 45.7644 45.224 45.1966C43.3929 44.3525 41.5617 43.5085 39.7306 42.6594C36.8261 41.3179 33.9273 39.9814 31.0227 38.64C30.3856 38.3435 29.7541 38.0421 29.1055 37.7557C28.5028 37.4894 27.9345 37.4894 27.3318 37.7557C27.2629 37.7858 27.194 37.821 27.1251 37.8511C26.7979 38.0019 26.4708 38.1526 26.1436 38.3033C23.3768 39.5795 20.61 40.8557 17.849 42.1318C15.6734 43.1367 13.5036 44.1365 11.3281 45.1414C11.2937 45.1564 11.2535 45.1765 11.219 45.1916C12.0629 45.7593 12.9067 46.3271 13.7505 46.8948C14.0777 45.0559 14.4049 43.2221 14.732 41.3832C15.2487 38.4792 15.7653 35.5802 16.2819 32.6762C16.3967 32.023 16.5172 31.3749 16.6321 30.7217C16.6435 30.6464 16.655 30.576 16.6665 30.4956C16.7411 30.0083 16.5689 29.5712 16.1786 29.2195C16.1269 29.1742 16.0695 29.129 16.0179 29.0788C15.7481 28.8477 15.484 28.6166 15.2142 28.3854C12.9468 26.426 10.6795 24.4665 8.41209 22.502C6.62114 20.9495 4.82446 19.4021 3.03352 17.8496C3.00482 17.8244 2.97612 17.7993 2.94741 17.7742C2.69485 18.6132 2.44228 19.4523 2.18971 20.2914C4.30784 19.9949 6.42024 19.6935 8.53837 19.397C11.7931 18.9398 15.0478 18.4826 18.2967 18.0204C18.9224 17.9299 19.571 17.8747 20.191 17.7541C21.1668 17.5682 21.5801 16.4327 21.9762 15.7444C23.4227 13.2172 24.875 10.69 26.3215 8.16278C27.4351 6.22342 28.543 4.28405 29.6566 2.34469C29.6738 2.31454 29.691 2.2844 29.7082 2.25425C30.11 1.55085 29.9493 0.586195 29.0883 0.194303C28.3134 -0.157395 27.1711 -0.0116919 26.7405 0.741947Z" fill="#2F76F0"/>
</svg>
